<mxfile host="app.diagrams.net" modified="2023-12-20T19:00:02.245Z" agent="Mozilla/5.0 (Windows NT 10.0; Win64; x64) AppleWebKit/537.36 (KHTML, like Gecko) Chrome/120.0.0.0 Safari/537.36 Edg/120.0.0.0" etag="RL97Zpo2_hZo-BOrpyDK" version="22.1.11" type="device">
  <diagram name="Page-1" id="kK9zwc3UMNIcfo7rLJu-">
    <mxGraphModel dx="1736" dy="861" grid="1" gridSize="10" guides="1" tooltips="1" connect="1" arrows="1" fold="1" page="1" pageScale="1" pageWidth="850" pageHeight="1100" math="0" shadow="0">
      <root>
        <mxCell id="0" />
        <mxCell id="1" parent="0" />
        <mxCell id="vrDGsK-6ZuRcalfdGMGd-91" value="" style="rounded=0;whiteSpace=wrap;html=1;fillColor=#f5f5f5;strokeColor=#666666;gradientColor=none;" parent="1" vertex="1">
          <mxGeometry x="460" y="230" width="400" height="190" as="geometry" />
        </mxCell>
        <mxCell id="vrDGsK-6ZuRcalfdGMGd-16" value="" style="rounded=0;whiteSpace=wrap;html=1;fillColor=#f5f5f5;gradientColor=#b3b3b3;strokeColor=#666666;" parent="1" vertex="1">
          <mxGeometry x="907" y="690" width="300" height="100" as="geometry" />
        </mxCell>
        <mxCell id="vrDGsK-6ZuRcalfdGMGd-11" style="edgeStyle=orthogonalEdgeStyle;rounded=0;orthogonalLoop=1;jettySize=auto;html=1;entryX=0.5;entryY=0;entryDx=0;entryDy=0;" parent="1" source="vrDGsK-6ZuRcalfdGMGd-1" target="vrDGsK-6ZuRcalfdGMGd-2" edge="1">
          <mxGeometry relative="1" as="geometry" />
        </mxCell>
        <mxCell id="vrDGsK-6ZuRcalfdGMGd-15" style="edgeStyle=orthogonalEdgeStyle;rounded=0;orthogonalLoop=1;jettySize=auto;html=1;entryX=0;entryY=0.5;entryDx=0;entryDy=0;" parent="1" source="vrDGsK-6ZuRcalfdGMGd-1" target="vrDGsK-6ZuRcalfdGMGd-9" edge="1">
          <mxGeometry relative="1" as="geometry" />
        </mxCell>
        <mxCell id="vrDGsK-6ZuRcalfdGMGd-1" value="MCL" style="rounded=0;whiteSpace=wrap;html=1;fillColor=#f5f5f5;strokeColor=#666666;fontSize=17;fontStyle=1;gradientColor=#b3b3b3;" parent="1" vertex="1">
          <mxGeometry x="295" y="160" width="120" height="60" as="geometry" />
        </mxCell>
        <mxCell id="vrDGsK-6ZuRcalfdGMGd-12" style="edgeStyle=orthogonalEdgeStyle;rounded=0;orthogonalLoop=1;jettySize=auto;html=1;" parent="1" source="vrDGsK-6ZuRcalfdGMGd-2" target="vrDGsK-6ZuRcalfdGMGd-5" edge="1">
          <mxGeometry relative="1" as="geometry" />
        </mxCell>
        <mxCell id="vrDGsK-6ZuRcalfdGMGd-2" value="Customer MS" style="rounded=0;whiteSpace=wrap;html=1;fillColor=#4e6aa2;fontColor=#ffffff;strokeColor=#001DBC;fontSize=17;fontStyle=1" parent="1" vertex="1">
          <mxGeometry x="295" y="330" width="120" height="60" as="geometry" />
        </mxCell>
        <mxCell id="vrDGsK-6ZuRcalfdGMGd-14" style="edgeStyle=orthogonalEdgeStyle;rounded=0;orthogonalLoop=1;jettySize=auto;html=1;" parent="1" source="vrDGsK-6ZuRcalfdGMGd-3" edge="1">
          <mxGeometry relative="1" as="geometry">
            <mxPoint x="355" y="720" as="targetPoint" />
          </mxGeometry>
        </mxCell>
        <mxCell id="vrDGsK-6ZuRcalfdGMGd-3" value="Commands (CQRS)" style="rounded=0;whiteSpace=wrap;html=1;fillColor=#0A0A0A;fontColor=#f5f0f0;fontSize=17;fontStyle=1" parent="1" vertex="1">
          <mxGeometry x="295" y="600" width="120" height="60" as="geometry" />
        </mxCell>
        <mxCell id="vrDGsK-6ZuRcalfdGMGd-13" style="edgeStyle=orthogonalEdgeStyle;rounded=0;orthogonalLoop=1;jettySize=auto;html=1;" parent="1" source="vrDGsK-6ZuRcalfdGMGd-5" target="vrDGsK-6ZuRcalfdGMGd-3" edge="1">
          <mxGeometry relative="1" as="geometry" />
        </mxCell>
        <mxCell id="vrDGsK-6ZuRcalfdGMGd-5" value="" style="sketch=0;shadow=0;dashed=0;html=1;strokeColor=none;labelPosition=center;verticalLabelPosition=bottom;verticalAlign=top;outlineConnect=0;align=center;shape=mxgraph.office.databases.database_mini_1;fillColor=#7FBA42;" parent="1" vertex="1">
          <mxGeometry x="290" y="470" width="130" height="70" as="geometry" />
        </mxCell>
        <mxCell id="vrDGsK-6ZuRcalfdGMGd-6" value="Customer MADS" style="text;html=1;strokeColor=none;fillColor=none;align=center;verticalAlign=middle;whiteSpace=wrap;rounded=0;fontSize=17;fontStyle=1" parent="1" vertex="1">
          <mxGeometry x="310" y="495" width="100" height="30" as="geometry" />
        </mxCell>
        <mxCell id="vrDGsK-6ZuRcalfdGMGd-29" style="edgeStyle=orthogonalEdgeStyle;rounded=0;orthogonalLoop=1;jettySize=auto;html=1;entryX=0;entryY=0.5;entryDx=0;entryDy=0;" parent="1" source="vrDGsK-6ZuRcalfdGMGd-7" target="vrDGsK-6ZuRcalfdGMGd-17" edge="1">
          <mxGeometry relative="1" as="geometry" />
        </mxCell>
        <mxCell id="vrDGsK-6ZuRcalfdGMGd-7" value="" style="sketch=0;shadow=0;dashed=0;html=1;strokeColor=none;labelPosition=center;verticalLabelPosition=bottom;verticalAlign=top;outlineConnect=0;align=center;shape=mxgraph.office.databases.database_mini_1;fillColor=#7FBA42;" parent="1" vertex="1">
          <mxGeometry x="295" y="720" width="130" height="70" as="geometry" />
        </mxCell>
        <mxCell id="vrDGsK-6ZuRcalfdGMGd-8" value="MDM" style="text;html=1;strokeColor=none;fillColor=none;align=center;verticalAlign=middle;whiteSpace=wrap;rounded=0;fontSize=17;fontStyle=1" parent="1" vertex="1">
          <mxGeometry x="330" y="755" width="60" height="30" as="geometry" />
        </mxCell>
        <mxCell id="vrDGsK-6ZuRcalfdGMGd-9" value="Canada Post&amp;nbsp; Address Auto Validation API" style="rounded=0;whiteSpace=wrap;html=1;fillColor=#4e6aa2;fontColor=#FFFFFF;fontSize=17;fontStyle=1" parent="1" vertex="1">
          <mxGeometry x="515" y="160" width="120" height="60" as="geometry" />
        </mxCell>
        <mxCell id="vrDGsK-6ZuRcalfdGMGd-17" value="Customers, address, updated {env}.customers" style="rounded=0;whiteSpace=wrap;html=1;fillColor=#4e6aa2;fontColor=#ffffff;strokeColor=#001DBC;fontSize=17;fontStyle=1" parent="1" vertex="1">
          <mxGeometry x="966" y="725" width="205" height="60" as="geometry" />
        </mxCell>
        <mxCell id="vrDGsK-6ZuRcalfdGMGd-94" style="edgeStyle=orthogonalEdgeStyle;rounded=0;orthogonalLoop=1;jettySize=auto;html=1;entryX=0;entryY=0.75;entryDx=0;entryDy=0;" parent="1" source="vrDGsK-6ZuRcalfdGMGd-18" target="vrDGsK-6ZuRcalfdGMGd-22" edge="1">
          <mxGeometry relative="1" as="geometry" />
        </mxCell>
        <mxCell id="vrDGsK-6ZuRcalfdGMGd-18" value="Onbase Subscriber" style="rounded=0;whiteSpace=wrap;html=1;fillColor=#858585;strokeColor=#666666;gradientColor=none;fontColor=#FFFFFF;fontStyle=1;fontSize=17;" parent="1" vertex="1">
          <mxGeometry x="1052" y="400" width="120" height="60" as="geometry" />
        </mxCell>
        <mxCell id="vrDGsK-6ZuRcalfdGMGd-21" style="edgeStyle=orthogonalEdgeStyle;rounded=0;orthogonalLoop=1;jettySize=auto;html=1;fillColor=#e3c800;strokeColor=#B09500;" parent="1" source="vrDGsK-6ZuRcalfdGMGd-19" target="vrDGsK-6ZuRcalfdGMGd-20" edge="1">
          <mxGeometry relative="1" as="geometry" />
        </mxCell>
        <mxCell id="vrDGsK-6ZuRcalfdGMGd-19" value="OnBase" style="rounded=0;whiteSpace=wrap;html=1;fillColor=#4e6aa2;fontColor=#ffffff;strokeColor=#001DBC;fontSize=17;fontStyle=1" parent="1" vertex="1">
          <mxGeometry x="1053" y="160" width="120" height="60" as="geometry" />
        </mxCell>
        <mxCell id="vrDGsK-6ZuRcalfdGMGd-20" value="CIS" style="rounded=0;whiteSpace=wrap;html=1;fillColor=#4e6aa2;fontColor=#ffffff;strokeColor=#001DBC;fontSize=17;fontStyle=1" parent="1" vertex="1">
          <mxGeometry x="1313" y="160" width="120" height="60" as="geometry" />
        </mxCell>
        <mxCell id="vrDGsK-6ZuRcalfdGMGd-22" value="Customers MS" style="rounded=0;whiteSpace=wrap;html=1;fillColor=#4e6aa2;fontColor=#ffffff;strokeColor=#001DBC;fontSize=17;fontStyle=1" parent="1" vertex="1">
          <mxGeometry x="1564" y="571" width="136" height="60" as="geometry" />
        </mxCell>
        <mxCell id="vrDGsK-6ZuRcalfdGMGd-23" value="Agreement MS" style="rounded=0;whiteSpace=wrap;html=1;fillColor=#4e6aa2;fontColor=#ffffff;strokeColor=#001DBC;fontSize=17;fontStyle=1" parent="1" vertex="1">
          <mxGeometry x="1564" y="470" width="136" height="60" as="geometry" />
        </mxCell>
        <mxCell id="vrDGsK-6ZuRcalfdGMGd-25" value="" style="endArrow=classic;html=1;rounded=0;entryX=0.492;entryY=1;entryDx=0;entryDy=0;entryPerimeter=0;" parent="1" target="vrDGsK-6ZuRcalfdGMGd-18" edge="1">
          <mxGeometry width="50" height="50" relative="1" as="geometry">
            <mxPoint x="1110" y="690" as="sourcePoint" />
            <mxPoint x="1110.1100917431195" y="460" as="targetPoint" />
          </mxGeometry>
        </mxCell>
        <mxCell id="vrDGsK-6ZuRcalfdGMGd-28" value="" style="endArrow=classic;html=1;rounded=0;entryX=0;entryY=0.75;entryDx=0;entryDy=0;" parent="1" edge="1">
          <mxGeometry width="50" height="50" relative="1" as="geometry">
            <mxPoint x="1370" y="510" as="sourcePoint" />
            <mxPoint x="1561" y="510" as="targetPoint" />
          </mxGeometry>
        </mxCell>
        <mxCell id="vrDGsK-6ZuRcalfdGMGd-30" value="Kafka" style="text;html=1;strokeColor=none;fillColor=none;align=center;verticalAlign=middle;whiteSpace=wrap;rounded=0;fontSize=17;fontStyle=1" parent="1" vertex="1">
          <mxGeometry x="1113" y="695" width="60" height="30" as="geometry" />
        </mxCell>
        <mxCell id="vrDGsK-6ZuRcalfdGMGd-32" value="" style="ellipse;whiteSpace=wrap;html=1;aspect=fixed;fillColor=#e91616;" parent="1" vertex="1">
          <mxGeometry x="340" y="210" width="30" height="30" as="geometry" />
        </mxCell>
        <mxCell id="vrDGsK-6ZuRcalfdGMGd-33" value="" style="ellipse;whiteSpace=wrap;html=1;aspect=fixed;fillColor=#e91616;" parent="1" vertex="1">
          <mxGeometry x="1143" y="140" width="30" height="30" as="geometry" />
        </mxCell>
        <mxCell id="vrDGsK-6ZuRcalfdGMGd-34" value="" style="ellipse;whiteSpace=wrap;html=1;aspect=fixed;fillColor=#e91616;" parent="1" vertex="1">
          <mxGeometry x="1152" y="390" width="30" height="30" as="geometry" />
        </mxCell>
        <mxCell id="vrDGsK-6ZuRcalfdGMGd-36" value="MADS" style="sketch=0;shadow=0;dashed=0;html=1;strokeColor=none;labelPosition=center;verticalLabelPosition=middle;verticalAlign=middle;outlineConnect=0;align=center;shape=mxgraph.office.databases.database_mini_1;fillColor=#7FBA42;fontSize=17;fontStyle=1" parent="1" vertex="1">
          <mxGeometry x="1673" y="600" width="80" height="50" as="geometry" />
        </mxCell>
        <mxCell id="vrDGsK-6ZuRcalfdGMGd-37" value="MADS" style="sketch=0;shadow=0;dashed=0;html=1;strokeColor=none;labelPosition=center;verticalLabelPosition=middle;verticalAlign=middle;outlineConnect=0;align=center;shape=mxgraph.office.databases.database_mini_1;fillColor=#7FBA42;fontColor=#121111;fontSize=17;fontStyle=1" parent="1" vertex="1">
          <mxGeometry x="1675" y="500" width="80" height="42" as="geometry" />
        </mxCell>
        <mxCell id="vrDGsK-6ZuRcalfdGMGd-39" value="" style="ellipse;whiteSpace=wrap;html=1;aspect=fixed;fillColor=#60a917;strokeColor=#2D7600;fontColor=#ffffff;" parent="1" vertex="1">
          <mxGeometry x="400" y="511" width="30" height="30" as="geometry" />
        </mxCell>
        <mxCell id="vrDGsK-6ZuRcalfdGMGd-40" value="" style="ellipse;whiteSpace=wrap;html=1;aspect=fixed;fillColor=#60a917;strokeColor=#2D7600;fontColor=#ffffff;" parent="1" vertex="1">
          <mxGeometry x="397" y="586" width="30" height="30" as="geometry" />
        </mxCell>
        <mxCell id="vrDGsK-6ZuRcalfdGMGd-41" value="" style="ellipse;whiteSpace=wrap;html=1;aspect=fixed;fillColor=#60a917;strokeColor=#2D7600;fontColor=#ffffff;" parent="1" vertex="1">
          <mxGeometry x="407" y="720" width="30" height="30" as="geometry" />
        </mxCell>
        <mxCell id="vrDGsK-6ZuRcalfdGMGd-42" value="" style="ellipse;whiteSpace=wrap;html=1;aspect=fixed;fillColor=#60a917;strokeColor=#2D7600;fontColor=#ffffff;" parent="1" vertex="1">
          <mxGeometry x="1675" y="460" width="30" height="30" as="geometry" />
        </mxCell>
        <mxCell id="vrDGsK-6ZuRcalfdGMGd-43" value="" style="ellipse;whiteSpace=wrap;html=1;aspect=fixed;fillColor=#60a917;strokeColor=#2D7600;fontColor=#ffffff;" parent="1" vertex="1">
          <mxGeometry x="615" y="150" width="30" height="30" as="geometry" />
        </mxCell>
        <mxCell id="vrDGsK-6ZuRcalfdGMGd-44" value="" style="ellipse;whiteSpace=wrap;html=1;aspect=fixed;fillColor=#e91616;" parent="1" vertex="1">
          <mxGeometry x="1319" y="710" width="30" height="30" as="geometry" />
        </mxCell>
        <mxCell id="vrDGsK-6ZuRcalfdGMGd-46" value="" style="ellipse;whiteSpace=wrap;html=1;aspect=fixed;fillColor=#60a917;strokeColor=#2D7600;fontColor=#ffffff;" parent="1" vertex="1">
          <mxGeometry x="1320" y="757" width="30" height="30" as="geometry" />
        </mxCell>
        <mxCell id="vrDGsK-6ZuRcalfdGMGd-47" value="" style="ellipse;whiteSpace=wrap;html=1;aspect=fixed;fillColor=#60a917;strokeColor=#2D7600;fontColor=#ffffff;" parent="1" vertex="1">
          <mxGeometry x="1675" y="560" width="30" height="30" as="geometry" />
        </mxCell>
        <mxCell id="vrDGsK-6ZuRcalfdGMGd-49" value="New" style="text;html=1;strokeColor=none;fillColor=none;align=center;verticalAlign=middle;whiteSpace=wrap;rounded=0;fontSize=17;fontStyle=1" parent="1" vertex="1">
          <mxGeometry x="1350" y="710" width="60" height="30" as="geometry" />
        </mxCell>
        <mxCell id="vrDGsK-6ZuRcalfdGMGd-50" value="Re-use" style="text;html=1;strokeColor=none;fillColor=none;align=center;verticalAlign=middle;whiteSpace=wrap;rounded=0;fontSize=17;fontStyle=1" parent="1" vertex="1">
          <mxGeometry x="1360" y="755" width="60" height="30" as="geometry" />
        </mxCell>
        <mxCell id="vrDGsK-6ZuRcalfdGMGd-52" value="Customer level address changes" style="text;html=1;strokeColor=none;fillColor=none;align=left;verticalAlign=middle;whiteSpace=wrap;rounded=0;fontSize=17;fontStyle=1" parent="1" vertex="1">
          <mxGeometry x="150" y="260" width="240" height="30" as="geometry" />
        </mxCell>
        <mxCell id="vrDGsK-6ZuRcalfdGMGd-53" value="Close MADS customer level data gaps e.g. province of residence" style="text;html=1;strokeColor=none;fillColor=none;align=left;verticalAlign=middle;whiteSpace=wrap;rounded=0;fontSize=17;fontStyle=1" parent="1" vertex="1">
          <mxGeometry x="90" y="500" width="200" height="30" as="geometry" />
        </mxCell>
        <mxCell id="vrDGsK-6ZuRcalfdGMGd-54" value="Publish customer address change events" style="text;html=1;strokeColor=none;fillColor=none;align=left;verticalAlign=middle;whiteSpace=wrap;rounded=0;fontSize=17;fontStyle=1" parent="1" vertex="1">
          <mxGeometry x="470" y="742.5" width="200" height="25" as="geometry" />
        </mxCell>
        <mxCell id="vrDGsK-6ZuRcalfdGMGd-56" value="Subscribe events Customer Address Update" style="text;html=1;strokeColor=none;fillColor=none;align=left;verticalAlign=middle;whiteSpace=wrap;rounded=0;fontSize=17;fontStyle=1" parent="1" vertex="1">
          <mxGeometry x="820" y="465" width="225" height="25" as="geometry" />
        </mxCell>
        <mxCell id="vrDGsK-6ZuRcalfdGMGd-57" value="Workflow" style="text;html=1;strokeColor=none;fillColor=none;align=left;verticalAlign=middle;whiteSpace=wrap;rounded=0;fontSize=17;fontStyle=1" parent="1" vertex="1">
          <mxGeometry x="1203" y="195" width="200" height="25" as="geometry" />
        </mxCell>
        <mxCell id="vrDGsK-6ZuRcalfdGMGd-58" value="Look p policy holding previous address etc." style="text;html=1;strokeColor=none;fillColor=none;align=left;verticalAlign=middle;whiteSpace=wrap;rounded=0;fontSize=17;fontStyle=1" parent="1" vertex="1">
          <mxGeometry x="1380" y="475" width="200" height="25" as="geometry" />
        </mxCell>
        <mxCell id="vrDGsK-6ZuRcalfdGMGd-59" value="Get customer Email Address" style="text;html=1;strokeColor=none;fillColor=none;align=left;verticalAlign=middle;whiteSpace=wrap;rounded=0;fontSize=17;fontStyle=1" parent="1" vertex="1">
          <mxGeometry x="1380" y="584" width="200" height="25" as="geometry" />
        </mxCell>
        <mxCell id="vrDGsK-6ZuRcalfdGMGd-60" value="&lt;span style=&quot;font-size: 21px;&quot;&gt;Integration Flow - MCL Address Update (ICAPI-266)&lt;/span&gt;" style="text;html=1;strokeColor=none;fillColor=none;align=center;verticalAlign=middle;whiteSpace=wrap;rounded=0;fontColor=#e51f1f;fontStyle=1;fontSize=21;" parent="1" vertex="1">
          <mxGeometry x="535" y="80" width="570" height="30" as="geometry" />
        </mxCell>
        <mxCell id="vrDGsK-6ZuRcalfdGMGd-81" value="" style="rounded=0;whiteSpace=wrap;html=1;fillColor=#1ba1e2;fontColor=#ffffff;strokeColor=#006EAF;" parent="1" vertex="1">
          <mxGeometry x="470.2" y="300" width="390" height="60" as="geometry" />
        </mxCell>
        <mxCell id="vrDGsK-6ZuRcalfdGMGd-84" value="GET" style="rounded=0;whiteSpace=wrap;html=1;fontStyle=1" parent="1" vertex="1">
          <mxGeometry x="480" y="334" width="60" height="20" as="geometry" />
        </mxCell>
        <mxCell id="vrDGsK-6ZuRcalfdGMGd-85" value="PUT" style="rounded=0;whiteSpace=wrap;html=1;fontStyle=1" parent="1" vertex="1">
          <mxGeometry x="545" y="334" width="60" height="20" as="geometry" />
        </mxCell>
        <mxCell id="vrDGsK-6ZuRcalfdGMGd-86" value="DELETE" style="rounded=0;whiteSpace=wrap;html=1;fontStyle=1" parent="1" vertex="1">
          <mxGeometry x="620" y="334" width="60" height="20" as="geometry" />
        </mxCell>
        <mxCell id="vrDGsK-6ZuRcalfdGMGd-89" value="/{customerId}/addresses/{addressId}" style="text;html=1;strokeColor=none;fillColor=none;align=left;verticalAlign=middle;whiteSpace=wrap;rounded=0;fontColor=#efebeb;fontStyle=1" parent="1" vertex="1">
          <mxGeometry x="480" y="304" width="250" height="30" as="geometry" />
        </mxCell>
        <mxCell id="vrDGsK-6ZuRcalfdGMGd-92" value="" style="shape=image;html=1;verticalAlign=top;verticalLabelPosition=bottom;labelBackgroundColor=#ffffff;imageAspect=0;aspect=fixed;image=https://cdn1.iconfinder.com/data/icons/ionicons-sharp-vol-2/512/star-sharp-128.png" parent="1" vertex="1">
          <mxGeometry x="470" y="240" width="30" height="30" as="geometry" />
        </mxCell>
        <mxCell id="vrDGsK-6ZuRcalfdGMGd-93" value="API Overview" style="text;html=1;strokeColor=none;fillColor=none;align=center;verticalAlign=middle;whiteSpace=wrap;rounded=0;fontStyle=1" parent="1" vertex="1">
          <mxGeometry x="500" y="240" width="105" height="30" as="geometry" />
        </mxCell>
        <mxCell id="vrDGsK-6ZuRcalfdGMGd-95" style="edgeStyle=orthogonalEdgeStyle;rounded=0;orthogonalLoop=1;jettySize=auto;html=1;entryX=0.492;entryY=0.833;entryDx=0;entryDy=0;entryPerimeter=0;" parent="1" edge="1">
          <mxGeometry relative="1" as="geometry">
            <mxPoint x="1112" y="400" as="sourcePoint" />
            <mxPoint x="1112.04" y="217.98000000000002" as="targetPoint" />
          </mxGeometry>
        </mxCell>
        <mxCell id="vrDGsK-6ZuRcalfdGMGd-96" value="/{customId}/addresses" style="text;html=1;strokeColor=none;fillColor=none;align=center;verticalAlign=middle;whiteSpace=wrap;rounded=0;fontStyle=1" parent="1" vertex="1">
          <mxGeometry x="512" y="359" width="60" height="30" as="geometry" />
        </mxCell>
        <mxCell id="vrDGsK-6ZuRcalfdGMGd-99" value="&lt;span&gt;GET&lt;/span&gt;" style="rounded=0;whiteSpace=wrap;html=1;fillColor=#82B366;gradientColor=none;strokeColor=#82b366;fontColor=#fffafa;fontStyle=1" parent="1" vertex="1">
          <mxGeometry x="480" y="383" width="40" height="20" as="geometry" />
        </mxCell>
        <mxCell id="vrDGsK-6ZuRcalfdGMGd-100" value="&lt;span&gt;POST&lt;/span&gt;" style="rounded=0;whiteSpace=wrap;html=1;fillColor=#007FFF;gradientColor=none;strokeColor=#82b366;fontColor=#fffafa;fontStyle=1" parent="1" vertex="1">
          <mxGeometry x="530" y="383" width="40" height="20" as="geometry" />
        </mxCell>
        <mxCell id="vrDGsK-6ZuRcalfdGMGd-101" value="" style="shadow=0;dashed=0;html=1;strokeColor=none;fillColor=#4495D1;labelPosition=center;verticalLabelPosition=bottom;verticalAlign=top;align=center;outlineConnect=0;shape=mxgraph.veeam.2d.file_system_browser;" parent="1" vertex="1">
          <mxGeometry x="470.2" y="270" width="29.8" height="30" as="geometry" />
        </mxCell>
        <mxCell id="vrDGsK-6ZuRcalfdGMGd-102" value="Paths" style="text;html=1;strokeColor=none;fillColor=none;align=left;verticalAlign=middle;whiteSpace=wrap;rounded=0;fontStyle=1" parent="1" vertex="1">
          <mxGeometry x="512" y="270" width="105" height="30" as="geometry" />
        </mxCell>
        <mxCell id="vrDGsK-6ZuRcalfdGMGd-108" style="edgeStyle=orthogonalEdgeStyle;rounded=0;orthogonalLoop=1;jettySize=auto;html=1;endArrow=none;endFill=0;" parent="1" source="vrDGsK-6ZuRcalfdGMGd-107" edge="1">
          <mxGeometry relative="1" as="geometry">
            <mxPoint x="640" y="190" as="targetPoint" />
          </mxGeometry>
        </mxCell>
        <mxCell id="vrDGsK-6ZuRcalfdGMGd-107" value="https://canadapost-postescanada.ca/ac" style="rounded=0;whiteSpace=wrap;html=1;fillColor=#1BA1E2;fontSize=17;fontStyle=1;gradientColor=none;strokeColor=#666666;fontColor=#EBEBEB;" parent="1" vertex="1">
          <mxGeometry x="740.2" y="160" width="199.8" height="60" as="geometry" />
        </mxCell>
      </root>
    </mxGraphModel>
  </diagram>
</mxfile>
